<?xml version="1.0" standalone="no"?>
<!DOCTYPE svg PUBLIC "-//W3C//DTD SVG 20010904//EN"
 "http://www.w3.org/TR/2001/REC-SVG-20010904/DTD/svg10.dtd">
<svg version="1.0" xmlns="http://www.w3.org/2000/svg"
 width="100.000000pt" height="200.000000pt" viewBox="0 0 200.000000 200.000000"
 preserveAspectRatio="xMidYMid meet">
<metadata>
Created by potrace 1.10, written by Peter Selinger 2001-2011
</metadata>
<g transform="translate(0.000000,200.000000) scale(0.100000,-0.100000)"
fill="#000000" stroke="none">
<path d="M158 1144 c-54 -29 -72 -98 -42 -157 31 -59 97 -147 111 -147 18 0
103 178 103 216 0 30 -21 69 -48 92 -21 16 -91 15 -124 -4z m131 -29 c34 -33
30 -80 -15 -175 -20 -44 -40 -80 -44 -80 -11 0 -46 42 -79 94 -40 65 -42 122
-5 159 42 42 100 43 143 2z"/>
<path d="M199 1097 c-27 -14 -37 -51 -19 -73 19 -21 67 -18 80 6 24 44 -17 88
-61 67z m46 -18 c4 -5 4 -21 1 -35 -5 -17 -13 -24 -31 -24 -18 0 -26 7 -31 24
-8 32 2 46 31 46 13 0 27 -5 30 -11z"/>
<path d="M380 1036 c0 -35 3 -71 6 -80 7 -19 45 -21 62 -4 15 15 16 148 2 148
-6 0 -10 -28 -10 -62 0 -68 -10 -95 -30 -83 -9 5 -11 28 -8 76 4 54 2 69 -8
69 -10 0 -14 -17 -14 -64z"/>
<path d="M490 1098 c-1 -2 -2 -38 -3 -81 -1 -52 2 -77 9 -77 8 0 11 19 8 58
-4 60 -1 58 30 -20 8 -21 19 -38 25 -38 5 0 11 36 13 80 2 59 0 80 -9 80 -9 0
-13 -19 -14 -62 l0 -63 -20 63 c-11 34 -24 62 -29 62 -6 0 -10 -1 -10 -2z"/>
<path d="M590 1020 l0 -80 35 0 c19 0 35 5 35 10 0 6 -12 10 -26 10 l-25 0 7
70 c6 61 4 70 -10 70 -13 0 -16 -13 -16 -80z"/>
<path d="M670 1090 c0 -5 5 -10 10 -10 6 0 10 -24 9 -60 -1 -33 -6 -60 -10
-60 -5 0 -9 -4 -9 -10 0 -5 11 -10 25 -10 14 0 25 5 25 10 0 6 -5 10 -11 10
-15 0 -5 106 12 126 9 12 6 14 -20 14 -17 0 -31 -4 -31 -10z"/>
<path d="M740 1051 c0 -27 -3 -63 -6 -80 -4 -19 -2 -31 4 -31 6 0 14 26 18 58
l8 57 9 -52 c10 -62 24 -68 32 -15 11 65 13 68 15 27 3 -83 19 -81 19 3 1 64
-2 82 -13 82 -18 0 -26 -22 -26 -68 0 -28 -3 -33 -10 -22 -5 8 -10 32 -10 53
0 30 -4 37 -20 37 -17 0 -20 -7 -20 -49z"/>
<path d="M850 1090 c0 -5 5 -10 10 -10 6 0 10 -27 10 -60 0 -33 -4 -60 -10
-60 -5 0 -10 -4 -10 -10 0 -5 11 -10 25 -10 14 0 25 5 25 10 0 6 -3 10 -7 10
-5 0 -6 30 -5 66 3 53 7 64 19 60 8 -3 19 -6 24 -6 5 0 9 -31 9 -70 0 -38 3
-70 8 -70 4 0 6 31 4 70 -3 65 -2 70 17 70 12 0 21 5 21 10 0 6 -30 10 -70 10
-40 0 -70 -4 -70 -10z"/>
<path d="M1000 1020 l0 -80 40 0 c22 0 40 5 40 10 0 6 -13 10 -30 10 -23 0
-30 4 -30 20 0 15 7 20 25 20 14 0 25 5 25 10 0 6 -11 8 -25 4 -23 -6 -25 -4
-25 30 0 33 2 36 30 36 17 0 30 5 30 10 0 6 -18 10 -40 10 l-40 0 0 -80z"/>
<path d="M1100 1020 c0 -78 1 -80 24 -80 32 0 66 44 66 84 0 45 -25 76 -61 76
l-29 0 0 -80z m59 39 c16 -29 9 -69 -15 -93 -26 -26 -29 -19 -26 55 4 74 15
84 41 38z"/>
<path d="M1269 1083 c-8 -9 -14 -37 -14 -63 0 -26 6 -54 14 -63 19 -23 58 -21
71 3 8 14 8 20 0 20 -6 0 -13 -7 -16 -15 -8 -20 -30 -19 -38 1 -10 27 -7 99 6
112 18 18 27 15 40 -15 9 -23 12 -25 15 -10 10 41 -50 64 -78 30z"/>
<path d="M1370 1021 c0 -45 4 -81 9 -81 4 0 6 11 3 25 -2 15 0 25 7 25 6 0 16
-11 21 -25 5 -14 14 -25 20 -25 13 0 13 6 -1 32 -9 16 -6 24 12 44 19 20 21
29 13 52 -8 22 -16 28 -47 30 l-37 3 0 -80z m60 50 c12 -24 4 -48 -21 -62 -17
-9 -19 -6 -19 36 0 49 20 62 40 26z"/>
<path d="M1479 1079 c-15 -28 -6 -116 13 -135 43 -43 92 73 58 137 -14 26 -56
25 -71 -2z m55 -5 c15 -39 2 -124 -19 -124 -17 0 -25 23 -25 70 0 47 8 70 25
70 7 0 16 -7 19 -16z"/>
<path d="M1590 1043 c-6 -32 -14 -68 -17 -80 -3 -13 0 -23 6 -23 6 0 11 7 11
15 0 9 9 15 25 15 16 0 25 -6 25 -15 0 -8 6 -15 13 -15 10 0 9 18 -7 80 -11
48 -24 80 -32 80 -7 0 -17 -24 -24 -57z m39 -35 c1 -20 -4 -28 -15 -28 -13 0
-15 7 -10 31 3 17 6 39 7 48 1 26 17 -19 18 -51z"/>
<path d="M1660 1090 c0 -5 7 -10 15 -10 12 0 15 -14 15 -70 0 -45 4 -70 11
-70 8 0 10 23 7 70 -3 62 -2 70 14 70 10 0 18 5 18 10 0 6 -18 10 -40 10 -22
0 -40 -4 -40 -10z"/>
<path d="M1755 1021 l0 -80 38 1 c24 0 37 5 37 14 0 20 37 17 49 -3 18 -33 19
-9 3 70 -21 101 -41 101 -60 0 -11 -54 -18 -70 -28 -66 -17 6 -20 123 -4 123
6 0 10 5 10 10 0 6 -10 10 -22 10 -22 0 -23 -4 -23 -79z m109 2 c6 -38 4 -43
-14 -43 -17 0 -19 5 -14 33 13 71 18 73 28 10z"/>
</g>
</svg>
